G75*
%MOIN*%
%OFA0B0*%
%FSLAX24Y24*%
%IPPOS*%
%LPD*%
%AMOC8*
5,1,8,0,0,1.08239X$1,22.5*
%
%ADD10C,0.0000*%
%ADD11R,0.0276X0.0512*%
%ADD12C,0.0560*%
%ADD13R,0.0434X0.0473*%
%ADD14R,0.0512X0.0512*%
%ADD15R,0.0473X0.0434*%
%ADD16C,0.0640*%
%ADD17R,0.0827X0.0631*%
%ADD18R,0.0827X0.1536*%
%ADD19OC8,0.0890*%
D10*
X000542Y000150D02*
X000542Y009284D01*
X015896Y009284D01*
X015896Y000150D01*
X000542Y000150D01*
D11*
X007152Y005544D03*
X007652Y005544D03*
X008152Y005544D03*
X008652Y005544D03*
X009152Y005544D03*
X009652Y005544D03*
X010152Y005544D03*
X010152Y007748D03*
X009652Y007748D03*
X009152Y007748D03*
X008652Y007748D03*
X008152Y007748D03*
X007652Y007748D03*
X007152Y007748D03*
D12*
X006672Y004784D02*
X006672Y004264D01*
X005672Y004264D02*
X005672Y004784D01*
X004672Y004784D02*
X004672Y004264D01*
X003672Y004264D02*
X003672Y004784D01*
X007672Y004784D02*
X007672Y004264D01*
X008672Y004264D02*
X008672Y004784D01*
X010790Y004784D02*
X010790Y004264D01*
X011790Y004264D02*
X011790Y004784D01*
X011790Y001784D02*
X011790Y001264D01*
X010790Y001264D02*
X010790Y001784D01*
X008672Y001784D02*
X008672Y001264D01*
X007672Y001264D02*
X007672Y001784D01*
X006672Y001784D02*
X006672Y001264D01*
X005672Y001264D02*
X005672Y001784D01*
X004672Y001784D02*
X004672Y001264D01*
X003672Y001264D02*
X003672Y001784D01*
D13*
X011467Y005465D03*
X012136Y005465D03*
X012136Y006134D03*
X011467Y006134D03*
X011467Y006804D03*
X012136Y006804D03*
X012136Y007473D03*
X011467Y007473D03*
X011467Y008142D03*
X012136Y008142D03*
D14*
X012727Y008142D03*
X013554Y008142D03*
X013554Y007473D03*
X012727Y007473D03*
X012727Y006804D03*
X013554Y006804D03*
X013554Y006134D03*
X012727Y006134D03*
X012727Y005465D03*
X013554Y005465D03*
D15*
X008691Y003162D03*
X007707Y003162D03*
X007707Y002493D03*
X008691Y002493D03*
X006684Y002493D03*
X005660Y002493D03*
X004676Y002493D03*
X003691Y002493D03*
X003691Y003162D03*
X004676Y003162D03*
X005660Y003162D03*
X006684Y003162D03*
D16*
X001787Y002717D02*
X001187Y002717D01*
X001187Y001717D02*
X001787Y001717D01*
X001787Y003717D02*
X001187Y003717D01*
X001187Y004717D02*
X001787Y004717D01*
X001787Y005717D02*
X001187Y005717D01*
X001187Y006717D02*
X001787Y006717D01*
X001787Y007717D02*
X001187Y007717D01*
X014533Y007217D02*
X015133Y007217D01*
X015133Y006217D02*
X014533Y006217D01*
X014533Y005217D02*
X015133Y005217D01*
X015133Y004217D02*
X014533Y004217D01*
X014533Y003217D02*
X015133Y003217D01*
X015133Y002217D02*
X014533Y002217D01*
D17*
X003121Y006056D03*
X003121Y006961D03*
X003121Y007867D03*
D18*
X005601Y006961D03*
D19*
X013337Y003181D03*
X013337Y002158D03*
M02*
