G75*
%MOIN*%
%OFA0B0*%
%FSLAX24Y24*%
%IPPOS*%
%LPD*%
%AMOC8*
5,1,8,0,0,1.08239X$1,22.5*
%
%ADD10C,0.0000*%
%ADD11C,0.0560*%
%ADD12R,0.0473X0.0434*%
%ADD13C,0.0640*%
%ADD14R,0.0434X0.0473*%
%ADD15R,0.0552X0.0631*%
%ADD16OC8,0.0890*%
%ADD17R,0.0591X0.0434*%
D10*
X000542Y000150D02*
X000542Y009284D01*
X015896Y009284D01*
X015896Y000150D01*
X000542Y000150D01*
D11*
X003672Y001264D02*
X003672Y001784D01*
X004672Y001784D02*
X004672Y001264D01*
X005672Y001264D02*
X005672Y001784D01*
X006672Y001784D02*
X006672Y001264D01*
X007672Y001264D02*
X007672Y001784D01*
X008672Y001784D02*
X008672Y001264D01*
X010790Y001264D02*
X010790Y001784D01*
X011790Y001784D02*
X011790Y001264D01*
X011790Y004264D02*
X011790Y004784D01*
X010790Y004784D02*
X010790Y004264D01*
X008672Y004264D02*
X008672Y004784D01*
X007672Y004784D02*
X007672Y004264D01*
X006672Y004264D02*
X006672Y004784D01*
X005672Y004784D02*
X005672Y004264D01*
X004672Y004264D02*
X004672Y004784D01*
X003672Y004784D02*
X003672Y004264D01*
D12*
X006447Y007335D03*
X006447Y008004D03*
D13*
X001787Y007717D02*
X001187Y007717D01*
X001187Y006717D02*
X001787Y006717D01*
X001787Y005717D02*
X001187Y005717D01*
X001187Y004717D02*
X001787Y004717D01*
X001787Y003717D02*
X001187Y003717D01*
X001187Y002717D02*
X001787Y002717D01*
X001787Y001717D02*
X001187Y001717D01*
X014533Y002217D02*
X015133Y002217D01*
X015133Y003217D02*
X014533Y003217D01*
X014533Y004217D02*
X015133Y004217D01*
X015133Y005217D02*
X014533Y005217D01*
X014533Y006217D02*
X015133Y006217D01*
X015133Y007217D02*
X014533Y007217D01*
D14*
X012097Y007473D03*
X011428Y007473D03*
X011428Y008142D03*
X012097Y008142D03*
X009971Y008418D03*
X009302Y008418D03*
X009302Y007788D03*
X008632Y007788D03*
X008435Y006882D03*
X007766Y006882D03*
X007038Y006863D03*
X007038Y006193D03*
X004853Y006764D03*
X004184Y006764D03*
X011428Y006804D03*
X012097Y006804D03*
X012097Y006134D03*
X011428Y006134D03*
X011428Y005465D03*
X012097Y005465D03*
D15*
X005325Y008181D03*
X004577Y008181D03*
X004262Y006016D03*
X005010Y006016D03*
D16*
X013337Y003181D03*
X013337Y002158D03*
D17*
X003534Y006036D03*
X002668Y006410D03*
X003534Y006784D03*
M02*
