G75*
%MOIN*%
%OFA0B0*%
%FSLAX24Y24*%
%IPPOS*%
%LPD*%
%AMOC8*
5,1,8,0,0,1.08239X$1,22.5*
%
%ADD10C,0.0000*%
%ADD11C,0.0520*%
%ADD12R,0.0433X0.0394*%
%ADD13C,0.0600*%
%ADD14R,0.0394X0.0433*%
%ADD15R,0.0512X0.0591*%
%ADD16OC8,0.0850*%
%ADD17R,0.0551X0.0394*%
%ADD18C,0.0500*%
%ADD19C,0.0160*%
%ADD20C,0.0240*%
%ADD21C,0.0400*%
%ADD22C,0.0356*%
%ADD23C,0.0100*%
%ADD24C,0.0320*%
D10*
X000542Y000150D02*
X000542Y009284D01*
X015896Y009284D01*
X015896Y000150D01*
X000542Y000150D01*
D11*
X003672Y001264D02*
X003672Y001784D01*
X004672Y001784D02*
X004672Y001264D01*
X005672Y001264D02*
X005672Y001784D01*
X006672Y001784D02*
X006672Y001264D01*
X007672Y001264D02*
X007672Y001784D01*
X008672Y001784D02*
X008672Y001264D01*
X010790Y001264D02*
X010790Y001784D01*
X011790Y001784D02*
X011790Y001264D01*
X011790Y004264D02*
X011790Y004784D01*
X010790Y004784D02*
X010790Y004264D01*
X008672Y004264D02*
X008672Y004784D01*
X007672Y004784D02*
X007672Y004264D01*
X006672Y004264D02*
X006672Y004784D01*
X005672Y004784D02*
X005672Y004264D01*
X004672Y004264D02*
X004672Y004784D01*
X003672Y004784D02*
X003672Y004264D01*
D12*
X006447Y007335D03*
X006447Y008004D03*
D13*
X001787Y007717D02*
X001187Y007717D01*
X001187Y006717D02*
X001787Y006717D01*
X001787Y005717D02*
X001187Y005717D01*
X001187Y004717D02*
X001787Y004717D01*
X001787Y003717D02*
X001187Y003717D01*
X001187Y002717D02*
X001787Y002717D01*
X001787Y001717D02*
X001187Y001717D01*
X014533Y002217D02*
X015133Y002217D01*
X015133Y003217D02*
X014533Y003217D01*
X014533Y004217D02*
X015133Y004217D01*
X015133Y005217D02*
X014533Y005217D01*
X014533Y006217D02*
X015133Y006217D01*
X015133Y007217D02*
X014533Y007217D01*
D14*
X012097Y007473D03*
X011428Y007473D03*
X011428Y008142D03*
X012097Y008142D03*
X009971Y008418D03*
X009302Y008418D03*
X009302Y007788D03*
X008632Y007788D03*
X008435Y006882D03*
X007766Y006882D03*
X007038Y006863D03*
X007038Y006193D03*
X004853Y006764D03*
X004184Y006764D03*
X011428Y006804D03*
X012097Y006804D03*
X012097Y006134D03*
X011428Y006134D03*
X011428Y005465D03*
X012097Y005465D03*
D15*
X005325Y008181D03*
X004577Y008181D03*
X004262Y006016D03*
X005010Y006016D03*
D16*
X013337Y003181D03*
X013337Y002158D03*
D17*
X003534Y006036D03*
X002668Y006410D03*
X003534Y006784D03*
D18*
X005896Y008063D03*
X006487Y006804D03*
X006684Y005544D03*
D19*
X006487Y006804D02*
X006487Y007296D01*
X006447Y007335D01*
X007786Y007158D02*
X007786Y006902D01*
X007766Y006882D01*
X007786Y007158D02*
X007943Y007315D01*
X008928Y007315D01*
X009833Y006410D01*
X009833Y004835D01*
X010699Y005544D02*
X011349Y005544D01*
X011428Y005465D01*
X012097Y005465D02*
X012274Y005465D01*
X014400Y003339D01*
X014711Y003339D01*
X014833Y003217D01*
X014833Y004217D02*
X014766Y004284D01*
X014203Y004284D01*
X012353Y006134D01*
X012097Y006134D01*
X011428Y006134D02*
X010424Y006134D01*
X010187Y006370D01*
X010187Y007237D01*
X010621Y007709D02*
X010857Y007473D01*
X011428Y007473D01*
X011054Y007473D01*
X011093Y008142D02*
X010896Y008339D01*
X011093Y008142D02*
X011428Y008142D01*
X012097Y008142D02*
X013258Y008142D01*
X014203Y007197D01*
X014813Y007197D01*
X014833Y007217D01*
X014833Y006217D02*
X014829Y006213D01*
X014164Y006213D01*
X012904Y007473D01*
X012097Y007473D01*
X012097Y006804D02*
X012628Y006804D01*
X014203Y005229D01*
X014821Y005229D01*
X014833Y005217D01*
X011428Y006804D02*
X010739Y006804D01*
X009302Y007788D02*
X009302Y008418D01*
X008258Y008418D01*
X007628Y008536D02*
X007628Y008260D01*
X008101Y007788D01*
X008632Y007788D01*
X007628Y008536D02*
X007471Y008693D01*
X002117Y008693D01*
X001487Y008063D01*
X001487Y007717D01*
D20*
X005660Y005426D02*
X005660Y004536D01*
X004684Y004536D01*
X004672Y004524D01*
X003672Y004524D01*
X005660Y004536D02*
X005672Y004524D01*
X006672Y004524D01*
X007672Y004524D01*
X008672Y004524D01*
X007038Y005898D02*
X006684Y005544D01*
X007038Y005898D02*
X007038Y006193D01*
X007058Y006213D01*
X007353Y006213D01*
X007766Y006626D01*
X007766Y006882D01*
X008435Y006882D02*
X008435Y006351D01*
X008652Y006134D01*
X006487Y006252D02*
X005660Y005426D01*
X006487Y006252D02*
X006487Y006804D01*
D21*
X006447Y008004D02*
X006073Y008004D01*
X005896Y008063D01*
X005778Y008181D01*
X005325Y008181D01*
X004184Y006764D02*
X003554Y006764D01*
X003534Y006784D01*
X003534Y006036D02*
X004243Y006036D01*
X004262Y006016D01*
X001487Y005717D02*
X001487Y004717D01*
X001487Y003717D01*
X001487Y002717D01*
X001487Y005717D02*
X001487Y006717D01*
X001487Y007717D01*
D22*
X002392Y008024D03*
X003967Y008221D03*
X007077Y008260D03*
X008258Y008418D03*
X010187Y007237D03*
X010621Y007709D03*
X010896Y008339D03*
X010739Y006804D03*
X010424Y006134D03*
X010699Y005544D03*
X009833Y004835D03*
X008652Y006134D03*
X009282Y006213D03*
X007943Y006134D03*
X008180Y003654D03*
X007195Y003654D03*
X006172Y003654D03*
X005148Y003654D03*
X004203Y003654D03*
X002707Y004244D03*
X002747Y005111D03*
X002432Y002591D03*
X009400Y002237D03*
X012510Y003772D03*
X014321Y008142D03*
D23*
X013879Y007932D02*
X015686Y007932D01*
X015686Y008030D02*
X013781Y008030D01*
X013682Y008129D02*
X015686Y008129D01*
X015686Y008227D02*
X013584Y008227D01*
X013485Y008326D02*
X015686Y008326D01*
X015686Y008424D02*
X013336Y008424D01*
X013316Y008432D02*
X012504Y008432D01*
X012504Y008446D01*
X012381Y008569D01*
X011813Y008569D01*
X011762Y008518D01*
X011711Y008569D01*
X011215Y008569D01*
X011116Y008668D01*
X010973Y008727D01*
X010819Y008727D01*
X010676Y008668D01*
X010567Y008559D01*
X010508Y008416D01*
X010508Y008262D01*
X010567Y008119D01*
X010589Y008097D01*
X010543Y008097D01*
X010401Y008038D01*
X010291Y007929D01*
X010232Y007786D01*
X010232Y007632D01*
X010235Y007625D01*
X010110Y007625D01*
X009968Y007566D01*
X009858Y007456D01*
X009799Y007314D01*
X009799Y007159D01*
X009858Y007017D01*
X009897Y006978D01*
X009897Y006756D01*
X009292Y007361D01*
X009585Y007361D01*
X009708Y007484D01*
X009708Y008091D01*
X009697Y008103D01*
X009708Y008114D01*
X009708Y008721D01*
X009585Y008844D01*
X009018Y008844D01*
X008895Y008721D01*
X008895Y008708D01*
X008517Y008708D01*
X008478Y008747D01*
X008336Y008806D01*
X008181Y008806D01*
X008038Y008747D01*
X007929Y008638D01*
X007915Y008602D01*
X007874Y008700D01*
X007717Y008858D01*
X007635Y008939D01*
X007529Y008983D01*
X002059Y008983D01*
X001952Y008939D01*
X001322Y008309D01*
X001241Y008228D01*
X001241Y008227D01*
X000752Y008227D01*
X000752Y008129D02*
X000877Y008129D01*
X000898Y008149D02*
X000754Y008006D01*
X000752Y008000D01*
X000752Y009074D01*
X015686Y009074D01*
X015686Y000360D01*
X000752Y000360D01*
X000752Y002434D01*
X000754Y002428D01*
X000898Y002285D01*
X001085Y002207D01*
X001888Y002207D01*
X002076Y002285D01*
X002219Y002428D01*
X002297Y002615D01*
X002297Y002818D01*
X002219Y003006D01*
X002076Y003149D01*
X001912Y003217D01*
X002076Y003285D01*
X002219Y003428D01*
X002297Y003615D01*
X002297Y003818D01*
X002219Y004006D01*
X002076Y004149D01*
X001912Y004217D01*
X002076Y004285D01*
X002219Y004428D01*
X002297Y004615D01*
X002297Y004818D01*
X002219Y005006D01*
X002076Y005149D01*
X001912Y005217D01*
X002076Y005285D01*
X002219Y005428D01*
X002297Y005615D01*
X002297Y005818D01*
X002219Y006006D01*
X002076Y006149D01*
X001912Y006217D01*
X002018Y006261D01*
X002079Y006200D01*
X002183Y006096D01*
X002233Y006075D01*
X002305Y006003D01*
X002978Y006003D01*
X002433Y005458D01*
X002377Y005322D01*
X002377Y005232D01*
X002358Y005188D01*
X002358Y005033D01*
X002417Y004891D01*
X002527Y004782D01*
X002669Y004723D01*
X002824Y004723D01*
X002966Y004782D01*
X003076Y004891D01*
X003135Y005033D01*
X003135Y005113D01*
X003647Y005626D01*
X003804Y005626D01*
X003919Y005511D01*
X004605Y005511D01*
X004728Y005634D01*
X004728Y006398D01*
X004605Y006521D01*
X004590Y006521D01*
X004590Y006675D01*
X004594Y006683D01*
X004594Y006846D01*
X004590Y006853D01*
X004590Y007068D01*
X004467Y007191D01*
X003900Y007191D01*
X003898Y007189D01*
X003896Y007191D01*
X003623Y007191D01*
X003615Y007194D01*
X003452Y007194D01*
X003445Y007191D01*
X003171Y007191D01*
X003048Y007068D01*
X003048Y006799D01*
X003030Y006817D01*
X002509Y006817D01*
X002295Y007031D01*
X002159Y007087D01*
X002138Y007087D01*
X002076Y007149D01*
X001912Y007217D01*
X002076Y007285D01*
X002219Y007428D01*
X002297Y007615D01*
X002297Y007818D01*
X002219Y008006D01*
X002076Y008149D01*
X002010Y008176D01*
X002237Y008403D01*
X004859Y008403D01*
X004859Y007799D01*
X004982Y007676D01*
X005633Y007676D01*
X005636Y007673D01*
X005805Y007603D01*
X005970Y007603D01*
X005992Y007594D01*
X006007Y007594D01*
X006021Y007590D01*
X006021Y007051D01*
X006071Y007001D01*
X006027Y006895D01*
X006027Y006712D01*
X006097Y006543D01*
X006157Y006483D01*
X006157Y006389D01*
X005473Y005705D01*
X005380Y005613D01*
X005330Y005491D01*
X005330Y005107D01*
X005273Y005050D01*
X005202Y004878D01*
X005141Y004878D01*
X005142Y004878D02*
X005070Y005050D01*
X004938Y005182D01*
X004765Y005254D01*
X004578Y005254D01*
X004405Y005182D01*
X004273Y005050D01*
X004202Y004878D01*
X004141Y004878D01*
X004142Y004878D02*
X004070Y005050D01*
X003938Y005182D01*
X003765Y005254D01*
X003578Y005254D01*
X003405Y005182D01*
X003273Y005050D01*
X003202Y004878D01*
X003063Y004878D01*
X003111Y004977D02*
X003243Y004977D01*
X003202Y004878D02*
X003202Y004171D01*
X003273Y003998D01*
X003405Y003866D01*
X003578Y003794D01*
X003765Y003794D01*
X003938Y003866D01*
X004070Y003998D01*
X004142Y004171D01*
X004142Y004194D01*
X004202Y004194D01*
X004202Y004171D01*
X004273Y003998D01*
X004405Y003866D01*
X004578Y003794D01*
X004765Y003794D01*
X004938Y003866D01*
X005070Y003998D01*
X005142Y004171D01*
X005142Y004206D01*
X005202Y004206D01*
X005202Y004171D01*
X005273Y003998D01*
X005405Y003866D01*
X005578Y003794D01*
X005765Y003794D01*
X005938Y003866D01*
X006070Y003998D01*
X006142Y004171D01*
X006142Y004194D01*
X006202Y004194D01*
X006202Y004171D01*
X006273Y003998D01*
X006405Y003866D01*
X006578Y003794D01*
X006765Y003794D01*
X006938Y003866D01*
X007070Y003998D01*
X007142Y004171D01*
X007142Y004194D01*
X007202Y004194D01*
X007202Y004171D01*
X007273Y003998D01*
X007405Y003866D01*
X007578Y003794D01*
X007765Y003794D01*
X007938Y003866D01*
X008070Y003998D01*
X008142Y004171D01*
X008142Y004194D01*
X008202Y004194D01*
X008202Y004171D01*
X008273Y003998D01*
X008405Y003866D01*
X008578Y003794D01*
X008765Y003794D01*
X008938Y003866D01*
X009070Y003998D01*
X009142Y004171D01*
X009142Y004878D01*
X009141Y004878D02*
X009445Y004878D01*
X009445Y004912D02*
X009445Y004758D01*
X009504Y004615D01*
X009613Y004506D01*
X009756Y004447D01*
X009910Y004447D01*
X010053Y004506D01*
X010162Y004615D01*
X010221Y004758D01*
X010221Y004912D01*
X010162Y005055D01*
X010123Y005094D01*
X010123Y005886D01*
X010204Y005805D01*
X010346Y005746D01*
X010363Y005746D01*
X010311Y005621D01*
X010311Y005466D01*
X010370Y005324D01*
X010479Y005215D01*
X010540Y005189D01*
X010524Y005182D01*
X010391Y005050D01*
X010320Y004878D01*
X010221Y004878D01*
X010221Y004780D02*
X010320Y004780D01*
X010320Y004878D02*
X010320Y004171D01*
X010369Y004053D01*
X010369Y003738D01*
X010425Y003602D01*
X010529Y003498D01*
X012062Y001965D01*
X012062Y001612D01*
X012118Y001476D01*
X012222Y001372D01*
X012655Y000939D01*
X012791Y000882D01*
X014041Y000882D01*
X014177Y000939D01*
X014281Y001043D01*
X014945Y001707D01*
X015235Y001707D01*
X015422Y001785D01*
X015565Y001928D01*
X015643Y002115D01*
X015643Y002318D01*
X015565Y002506D01*
X015422Y002649D01*
X015259Y002717D01*
X015422Y002785D01*
X015565Y002928D01*
X015643Y003115D01*
X015643Y003318D01*
X015565Y003506D01*
X015422Y003649D01*
X015259Y003717D01*
X015422Y003785D01*
X015565Y003928D01*
X015643Y004115D01*
X015643Y004318D01*
X015565Y004506D01*
X015422Y004649D01*
X015259Y004717D01*
X015422Y004785D01*
X015565Y004928D01*
X015643Y005115D01*
X015643Y005318D01*
X015565Y005506D01*
X015422Y005649D01*
X015259Y005717D01*
X015422Y005785D01*
X015565Y005928D01*
X015643Y006115D01*
X015643Y006318D01*
X015565Y006506D01*
X015422Y006649D01*
X015259Y006717D01*
X015422Y006785D01*
X015565Y006928D01*
X015643Y007115D01*
X015643Y007318D01*
X015565Y007506D01*
X015422Y007649D01*
X015235Y007727D01*
X014432Y007727D01*
X014244Y007649D01*
X014203Y007608D01*
X013423Y008388D01*
X013316Y008432D01*
X012427Y008523D02*
X015686Y008523D01*
X015686Y008621D02*
X011163Y008621D01*
X010992Y008720D02*
X015686Y008720D01*
X015686Y008818D02*
X009612Y008818D01*
X009708Y008720D02*
X010801Y008720D01*
X010629Y008621D02*
X009708Y008621D01*
X009708Y008523D02*
X010552Y008523D01*
X010511Y008424D02*
X009708Y008424D01*
X009708Y008326D02*
X010508Y008326D01*
X010522Y008227D02*
X009708Y008227D01*
X009708Y008129D02*
X010563Y008129D01*
X010393Y008030D02*
X009708Y008030D01*
X009708Y007932D02*
X010294Y007932D01*
X010252Y007833D02*
X009708Y007833D01*
X009708Y007735D02*
X010232Y007735D01*
X010232Y007636D02*
X009708Y007636D01*
X009708Y007538D02*
X009939Y007538D01*
X009851Y007439D02*
X009663Y007439D01*
X009810Y007341D02*
X009313Y007341D01*
X009411Y007242D02*
X009799Y007242D01*
X009806Y007144D02*
X009510Y007144D01*
X009608Y007045D02*
X009847Y007045D01*
X009897Y006947D02*
X009707Y006947D01*
X009805Y006848D02*
X009897Y006848D01*
X009379Y006454D02*
X008881Y006454D01*
X008872Y006463D02*
X008769Y006506D01*
X008842Y006579D01*
X008842Y006991D01*
X009543Y006290D01*
X009543Y005094D01*
X009504Y005055D01*
X009445Y004912D01*
X009472Y004977D02*
X009101Y004977D01*
X009070Y005050D02*
X008938Y005182D01*
X008765Y005254D01*
X008578Y005254D01*
X008405Y005182D01*
X008273Y005050D01*
X008202Y004878D01*
X008141Y004878D01*
X008142Y004878D02*
X008070Y005050D01*
X007938Y005182D01*
X007765Y005254D01*
X007578Y005254D01*
X007405Y005182D01*
X007273Y005050D01*
X007202Y004878D01*
X007141Y004878D01*
X007142Y004878D02*
X007070Y005050D01*
X006955Y005165D01*
X007073Y005283D01*
X007144Y005452D01*
X007144Y005537D01*
X007318Y005711D01*
X007354Y005799D01*
X007445Y005890D01*
X007445Y005894D01*
X007540Y005933D01*
X007953Y006347D01*
X008046Y006439D01*
X008055Y006460D01*
X008101Y006507D01*
X008105Y006502D01*
X008105Y006285D01*
X008156Y006164D01*
X008249Y006071D01*
X008265Y006055D01*
X008323Y005914D01*
X008432Y005805D01*
X008575Y005746D01*
X008729Y005746D01*
X008872Y005805D01*
X008981Y005914D01*
X009040Y006057D01*
X009040Y006211D01*
X008981Y006354D01*
X008872Y006463D01*
X008816Y006553D02*
X009280Y006553D01*
X009182Y006651D02*
X008842Y006651D01*
X008842Y006750D02*
X009083Y006750D01*
X008985Y006848D02*
X008842Y006848D01*
X008842Y006947D02*
X008886Y006947D01*
X008105Y006454D02*
X008052Y006454D01*
X008105Y006356D02*
X007962Y006356D01*
X007864Y006257D02*
X008117Y006257D01*
X008161Y006159D02*
X007765Y006159D01*
X007667Y006060D02*
X008260Y006060D01*
X008249Y006071D02*
X008249Y006071D01*
X008303Y005962D02*
X007568Y005962D01*
X007418Y005863D02*
X008374Y005863D01*
X008530Y005765D02*
X007340Y005765D01*
X007273Y005666D02*
X009543Y005666D01*
X009543Y005568D02*
X007174Y005568D01*
X007144Y005469D02*
X009543Y005469D01*
X009543Y005371D02*
X007110Y005371D01*
X007062Y005272D02*
X009543Y005272D01*
X009543Y005174D02*
X008947Y005174D01*
X009045Y005075D02*
X009524Y005075D01*
X009142Y004878D02*
X009070Y005050D01*
X009142Y004780D02*
X009445Y004780D01*
X009477Y004681D02*
X009142Y004681D01*
X009142Y004583D02*
X009537Y004583D01*
X009666Y004484D02*
X009142Y004484D01*
X009142Y004386D02*
X010320Y004386D01*
X010320Y004484D02*
X010000Y004484D01*
X010129Y004583D02*
X010320Y004583D01*
X010320Y004681D02*
X010189Y004681D01*
X010195Y004977D02*
X010361Y004977D01*
X010416Y005075D02*
X010142Y005075D01*
X010123Y005174D02*
X010515Y005174D01*
X010422Y005272D02*
X010123Y005272D01*
X010123Y005371D02*
X010351Y005371D01*
X010311Y005469D02*
X010123Y005469D01*
X010123Y005568D02*
X010311Y005568D01*
X010330Y005666D02*
X010123Y005666D01*
X010123Y005765D02*
X010302Y005765D01*
X010146Y005863D02*
X010123Y005863D01*
X009543Y005863D02*
X008930Y005863D01*
X009001Y005962D02*
X009543Y005962D01*
X009543Y006060D02*
X009040Y006060D01*
X009040Y006159D02*
X009543Y006159D01*
X009543Y006257D02*
X009021Y006257D01*
X008980Y006356D02*
X009477Y006356D01*
X009543Y005765D02*
X008774Y005765D01*
X008397Y005174D02*
X007947Y005174D01*
X008045Y005075D02*
X008298Y005075D01*
X008243Y004977D02*
X008101Y004977D01*
X008142Y004878D02*
X008142Y004854D01*
X008202Y004854D01*
X008202Y004878D01*
X007397Y005174D02*
X006964Y005174D01*
X007045Y005075D02*
X007298Y005075D01*
X007243Y004977D02*
X007101Y004977D01*
X007142Y004878D02*
X007142Y004854D01*
X007202Y004854D01*
X007202Y004878D01*
X007202Y004189D02*
X007142Y004189D01*
X007108Y004090D02*
X007235Y004090D01*
X007280Y003992D02*
X007064Y003992D01*
X006965Y003893D02*
X007378Y003893D01*
X007577Y003795D02*
X006766Y003795D01*
X006577Y003795D02*
X005766Y003795D01*
X005577Y003795D02*
X004766Y003795D01*
X004577Y003795D02*
X003766Y003795D01*
X003965Y003893D02*
X004378Y003893D01*
X004280Y003992D02*
X004064Y003992D01*
X004108Y004090D02*
X004235Y004090D01*
X004202Y004189D02*
X004142Y004189D01*
X003577Y003795D02*
X002297Y003795D01*
X002297Y003696D02*
X010386Y003696D01*
X010369Y003795D02*
X008766Y003795D01*
X008577Y003795D02*
X007766Y003795D01*
X007965Y003893D02*
X008378Y003893D01*
X008280Y003992D02*
X008064Y003992D01*
X008108Y004090D02*
X008235Y004090D01*
X008202Y004189D02*
X008142Y004189D01*
X008965Y003893D02*
X010369Y003893D01*
X010369Y003992D02*
X009064Y003992D01*
X009108Y004090D02*
X010353Y004090D01*
X010320Y004189D02*
X009142Y004189D01*
X009142Y004287D02*
X010320Y004287D01*
X011132Y003941D02*
X011188Y003998D01*
X011260Y004171D01*
X011260Y004878D01*
X011320Y004878D01*
X011320Y004171D01*
X011391Y003998D01*
X011524Y003866D01*
X011696Y003794D01*
X011883Y003794D01*
X012056Y003866D01*
X012188Y003998D01*
X012260Y004171D01*
X012260Y004878D01*
X012451Y004878D01*
X012549Y004780D02*
X012260Y004780D01*
X012260Y004878D02*
X012193Y005038D01*
X012290Y005038D01*
X013512Y003816D01*
X013074Y003816D01*
X012702Y003445D01*
X012702Y002918D01*
X012951Y002670D01*
X012702Y002421D01*
X012702Y002371D01*
X011132Y003941D01*
X011180Y003893D02*
X011496Y003893D01*
X011398Y003992D02*
X011182Y003992D01*
X011226Y004090D02*
X011353Y004090D01*
X011320Y004189D02*
X011260Y004189D01*
X011260Y004287D02*
X011320Y004287D01*
X011320Y004386D02*
X011260Y004386D01*
X011260Y004484D02*
X011320Y004484D01*
X011320Y004583D02*
X011260Y004583D01*
X011260Y004681D02*
X011320Y004681D01*
X011320Y004780D02*
X011260Y004780D01*
X011260Y004878D02*
X011193Y005038D01*
X011386Y005038D01*
X011320Y004878D01*
X011361Y004977D02*
X011219Y004977D01*
X012219Y004977D02*
X012352Y004977D01*
X012260Y004681D02*
X012648Y004681D01*
X012746Y004583D02*
X012260Y004583D01*
X012260Y004484D02*
X012845Y004484D01*
X012943Y004386D02*
X012260Y004386D01*
X012260Y004287D02*
X013042Y004287D01*
X013140Y004189D02*
X012260Y004189D01*
X012226Y004090D02*
X013239Y004090D01*
X013337Y003992D02*
X012182Y003992D01*
X012083Y003893D02*
X013436Y003893D01*
X013052Y003795D02*
X011884Y003795D01*
X011695Y003795D02*
X011279Y003795D01*
X011377Y003696D02*
X012954Y003696D01*
X012855Y003598D02*
X011476Y003598D01*
X011574Y003499D02*
X012757Y003499D01*
X012702Y003401D02*
X011673Y003401D01*
X011771Y003302D02*
X012702Y003302D01*
X012702Y003204D02*
X011870Y003204D01*
X011968Y003105D02*
X012702Y003105D01*
X012702Y003007D02*
X012067Y003007D01*
X012165Y002908D02*
X012713Y002908D01*
X012811Y002810D02*
X012264Y002810D01*
X012362Y002711D02*
X012910Y002711D01*
X012894Y002613D02*
X012461Y002613D01*
X012559Y002514D02*
X012795Y002514D01*
X012702Y002416D02*
X012658Y002416D01*
X012005Y002022D02*
X009082Y002022D01*
X009070Y002050D02*
X008938Y002182D01*
X008765Y002254D01*
X008578Y002254D01*
X008405Y002182D01*
X008273Y002050D01*
X008202Y001878D01*
X008202Y001171D01*
X008273Y000998D01*
X008405Y000866D01*
X008578Y000794D01*
X008765Y000794D01*
X008938Y000866D01*
X009070Y000998D01*
X009142Y001171D01*
X009142Y001878D01*
X009070Y002050D01*
X009000Y002120D02*
X011907Y002120D01*
X011808Y002219D02*
X008851Y002219D01*
X008492Y002219D02*
X007851Y002219D01*
X007765Y002254D02*
X007938Y002182D01*
X008070Y002050D01*
X008142Y001878D01*
X008142Y001171D01*
X008070Y000998D01*
X007938Y000866D01*
X007765Y000794D01*
X007578Y000794D01*
X007405Y000866D01*
X007273Y000998D01*
X007202Y001171D01*
X007202Y001878D01*
X007273Y002050D01*
X007405Y002182D01*
X007578Y002254D01*
X007765Y002254D01*
X008000Y002120D02*
X008343Y002120D01*
X008261Y002022D02*
X008082Y002022D01*
X008123Y001923D02*
X008221Y001923D01*
X008202Y001825D02*
X008142Y001825D01*
X008142Y001726D02*
X008202Y001726D01*
X008202Y001628D02*
X008142Y001628D01*
X008142Y001529D02*
X008202Y001529D01*
X008202Y001431D02*
X008142Y001431D01*
X008142Y001332D02*
X008202Y001332D01*
X008202Y001234D02*
X008142Y001234D01*
X008127Y001135D02*
X008216Y001135D01*
X008257Y001037D02*
X008086Y001037D01*
X008010Y000938D02*
X008333Y000938D01*
X008468Y000840D02*
X007875Y000840D01*
X007468Y000840D02*
X006875Y000840D01*
X006938Y000866D02*
X007070Y000998D01*
X007142Y001171D01*
X007142Y001878D01*
X007070Y002050D01*
X006938Y002182D01*
X006765Y002254D01*
X006578Y002254D01*
X006405Y002182D01*
X006273Y002050D01*
X006202Y001878D01*
X006202Y001171D01*
X006273Y000998D01*
X006405Y000866D01*
X006578Y000794D01*
X006765Y000794D01*
X006938Y000866D01*
X007010Y000938D02*
X007333Y000938D01*
X007257Y001037D02*
X007086Y001037D01*
X007127Y001135D02*
X007216Y001135D01*
X007202Y001234D02*
X007142Y001234D01*
X007142Y001332D02*
X007202Y001332D01*
X007202Y001431D02*
X007142Y001431D01*
X007142Y001529D02*
X007202Y001529D01*
X007202Y001628D02*
X007142Y001628D01*
X007142Y001726D02*
X007202Y001726D01*
X007202Y001825D02*
X007142Y001825D01*
X007123Y001923D02*
X007221Y001923D01*
X007261Y002022D02*
X007082Y002022D01*
X007000Y002120D02*
X007343Y002120D01*
X007492Y002219D02*
X006851Y002219D01*
X006492Y002219D02*
X005851Y002219D01*
X005765Y002254D02*
X005578Y002254D01*
X005405Y002182D01*
X005273Y002050D01*
X005202Y001878D01*
X005202Y001171D01*
X005273Y000998D01*
X005405Y000866D01*
X005578Y000794D01*
X005765Y000794D01*
X005938Y000866D01*
X006070Y000998D01*
X006142Y001171D01*
X006142Y001878D01*
X006070Y002050D01*
X005938Y002182D01*
X005765Y002254D01*
X006000Y002120D02*
X006343Y002120D01*
X006261Y002022D02*
X006082Y002022D01*
X006123Y001923D02*
X006221Y001923D01*
X006202Y001825D02*
X006142Y001825D01*
X006142Y001726D02*
X006202Y001726D01*
X006202Y001628D02*
X006142Y001628D01*
X006142Y001529D02*
X006202Y001529D01*
X006202Y001431D02*
X006142Y001431D01*
X006142Y001332D02*
X006202Y001332D01*
X006202Y001234D02*
X006142Y001234D01*
X006127Y001135D02*
X006216Y001135D01*
X006257Y001037D02*
X006086Y001037D01*
X006010Y000938D02*
X006333Y000938D01*
X006468Y000840D02*
X005875Y000840D01*
X005468Y000840D02*
X004875Y000840D01*
X004938Y000866D02*
X004765Y000794D01*
X004578Y000794D01*
X004405Y000866D01*
X004273Y000998D01*
X004202Y001171D01*
X004202Y001878D01*
X004273Y002050D01*
X004405Y002182D01*
X004578Y002254D01*
X004765Y002254D01*
X004938Y002182D01*
X005070Y002050D01*
X005142Y001878D01*
X005142Y001171D01*
X005070Y000998D01*
X004938Y000866D01*
X005010Y000938D02*
X005333Y000938D01*
X005257Y001037D02*
X005086Y001037D01*
X005127Y001135D02*
X005216Y001135D01*
X005202Y001234D02*
X005142Y001234D01*
X005142Y001332D02*
X005202Y001332D01*
X005202Y001431D02*
X005142Y001431D01*
X005142Y001529D02*
X005202Y001529D01*
X005202Y001628D02*
X005142Y001628D01*
X005142Y001726D02*
X005202Y001726D01*
X005202Y001825D02*
X005142Y001825D01*
X005123Y001923D02*
X005221Y001923D01*
X005261Y002022D02*
X005082Y002022D01*
X005000Y002120D02*
X005343Y002120D01*
X005492Y002219D02*
X004851Y002219D01*
X004492Y002219D02*
X003851Y002219D01*
X003765Y002254D02*
X003578Y002254D01*
X003405Y002182D01*
X003273Y002050D01*
X003202Y001878D01*
X003202Y001171D01*
X003273Y000998D01*
X003405Y000866D01*
X003578Y000794D01*
X003765Y000794D01*
X003938Y000866D01*
X004070Y000998D01*
X004142Y001171D01*
X004142Y001878D01*
X004070Y002050D01*
X003938Y002182D01*
X003765Y002254D01*
X004000Y002120D02*
X004343Y002120D01*
X004261Y002022D02*
X004082Y002022D01*
X004123Y001923D02*
X004221Y001923D01*
X004202Y001825D02*
X004142Y001825D01*
X004142Y001726D02*
X004202Y001726D01*
X004202Y001628D02*
X004142Y001628D01*
X004142Y001529D02*
X004202Y001529D01*
X004202Y001431D02*
X004142Y001431D01*
X004142Y001332D02*
X004202Y001332D01*
X004202Y001234D02*
X004142Y001234D01*
X004127Y001135D02*
X004216Y001135D01*
X004257Y001037D02*
X004086Y001037D01*
X004010Y000938D02*
X004333Y000938D01*
X004468Y000840D02*
X003875Y000840D01*
X003468Y000840D02*
X000752Y000840D01*
X000752Y000938D02*
X003333Y000938D01*
X003257Y001037D02*
X000752Y001037D01*
X000752Y001135D02*
X003216Y001135D01*
X003202Y001234D02*
X000752Y001234D01*
X000752Y001332D02*
X003202Y001332D01*
X003202Y001431D02*
X000752Y001431D01*
X000752Y001529D02*
X003202Y001529D01*
X003202Y001628D02*
X000752Y001628D01*
X000752Y001726D02*
X003202Y001726D01*
X003202Y001825D02*
X000752Y001825D01*
X000752Y001923D02*
X003221Y001923D01*
X003261Y002022D02*
X000752Y002022D01*
X000752Y002120D02*
X003343Y002120D01*
X003492Y002219D02*
X001916Y002219D01*
X002108Y002317D02*
X011710Y002317D01*
X011611Y002416D02*
X002206Y002416D01*
X002255Y002514D02*
X011513Y002514D01*
X011414Y002613D02*
X002295Y002613D01*
X002297Y002711D02*
X011316Y002711D01*
X011217Y002810D02*
X002297Y002810D01*
X002260Y002908D02*
X011119Y002908D01*
X011020Y003007D02*
X002218Y003007D01*
X002120Y003105D02*
X010922Y003105D01*
X010823Y003204D02*
X001945Y003204D01*
X002093Y003302D02*
X010725Y003302D01*
X010626Y003401D02*
X002191Y003401D01*
X002248Y003499D02*
X010528Y003499D01*
X010429Y003598D02*
X002289Y003598D01*
X002266Y003893D02*
X003378Y003893D01*
X003280Y003992D02*
X002225Y003992D01*
X002135Y004090D02*
X003235Y004090D01*
X003202Y004189D02*
X001981Y004189D01*
X002078Y004287D02*
X003202Y004287D01*
X003202Y004386D02*
X002176Y004386D01*
X002242Y004484D02*
X003202Y004484D01*
X003202Y004583D02*
X002283Y004583D01*
X002297Y004681D02*
X003202Y004681D01*
X003202Y004780D02*
X002961Y004780D01*
X003135Y005075D02*
X003298Y005075D01*
X003397Y005174D02*
X003195Y005174D01*
X003293Y005272D02*
X005330Y005272D01*
X005330Y005174D02*
X004947Y005174D01*
X005045Y005075D02*
X005298Y005075D01*
X005243Y004977D02*
X005101Y004977D01*
X005142Y004878D02*
X005142Y004866D01*
X005202Y004866D01*
X005202Y004878D01*
X005330Y005371D02*
X003392Y005371D01*
X003490Y005469D02*
X005330Y005469D01*
X005361Y005568D02*
X004662Y005568D01*
X004728Y005666D02*
X005434Y005666D01*
X005532Y005765D02*
X004728Y005765D01*
X004728Y005863D02*
X005631Y005863D01*
X005729Y005962D02*
X004728Y005962D01*
X004728Y006060D02*
X005828Y006060D01*
X005926Y006159D02*
X004728Y006159D01*
X004728Y006257D02*
X006025Y006257D01*
X006123Y006356D02*
X004728Y006356D01*
X004673Y006454D02*
X006157Y006454D01*
X006093Y006553D02*
X004590Y006553D01*
X004590Y006651D02*
X006052Y006651D01*
X006027Y006750D02*
X004594Y006750D01*
X004593Y006848D02*
X006027Y006848D01*
X006048Y006947D02*
X004590Y006947D01*
X004590Y007045D02*
X006027Y007045D01*
X006021Y007144D02*
X004515Y007144D01*
X004924Y007735D02*
X002297Y007735D01*
X002291Y007833D02*
X004859Y007833D01*
X004859Y007932D02*
X002250Y007932D01*
X002195Y008030D02*
X004859Y008030D01*
X004859Y008129D02*
X002096Y008129D01*
X002060Y008227D02*
X004859Y008227D01*
X004859Y008326D02*
X002159Y008326D01*
X001634Y008621D02*
X000752Y008621D01*
X000752Y008523D02*
X001536Y008523D01*
X001437Y008424D02*
X000752Y008424D01*
X000752Y008326D02*
X001339Y008326D01*
X001241Y008227D02*
X001085Y008227D01*
X000898Y008149D01*
X000779Y008030D02*
X000752Y008030D01*
X000752Y008720D02*
X001733Y008720D01*
X001831Y008818D02*
X000752Y008818D01*
X000752Y008917D02*
X001930Y008917D01*
X000752Y009015D02*
X015686Y009015D01*
X015686Y008917D02*
X007658Y008917D01*
X007717Y008858D02*
X007717Y008858D01*
X007756Y008818D02*
X008992Y008818D01*
X008895Y008720D02*
X008505Y008720D01*
X008011Y008720D02*
X007855Y008720D01*
X007907Y008621D02*
X007922Y008621D01*
X007338Y008403D02*
X007338Y008318D01*
X007338Y008203D01*
X007383Y008096D01*
X007877Y007602D01*
X007779Y007561D01*
X007698Y007480D01*
X007540Y007322D01*
X007535Y007309D01*
X007482Y007309D01*
X007359Y007186D01*
X007359Y006686D01*
X007293Y006620D01*
X006908Y006620D01*
X006947Y006712D01*
X006947Y006895D01*
X006877Y007064D01*
X006874Y007067D01*
X006874Y007619D01*
X006823Y007670D01*
X006874Y007720D01*
X006874Y008288D01*
X006759Y008403D01*
X007338Y008403D01*
X007338Y008326D02*
X006836Y008326D01*
X006874Y008227D02*
X007338Y008227D01*
X007369Y008129D02*
X006874Y008129D01*
X006874Y008030D02*
X007448Y008030D01*
X007547Y007932D02*
X006874Y007932D01*
X006874Y007833D02*
X007645Y007833D01*
X007744Y007735D02*
X006874Y007735D01*
X006857Y007636D02*
X007842Y007636D01*
X007755Y007538D02*
X006874Y007538D01*
X006874Y007439D02*
X007657Y007439D01*
X007558Y007341D02*
X006874Y007341D01*
X006874Y007242D02*
X007416Y007242D01*
X007359Y007144D02*
X006874Y007144D01*
X006885Y007045D02*
X007359Y007045D01*
X007359Y006947D02*
X006925Y006947D01*
X006947Y006848D02*
X007359Y006848D01*
X007359Y006750D02*
X006947Y006750D01*
X006921Y006651D02*
X007324Y006651D01*
X006021Y007242D02*
X001973Y007242D01*
X002081Y007144D02*
X003124Y007144D01*
X003048Y007045D02*
X002260Y007045D01*
X002379Y006947D02*
X003048Y006947D01*
X003048Y006848D02*
X002477Y006848D01*
X002132Y007341D02*
X006021Y007341D01*
X006021Y007439D02*
X002224Y007439D01*
X002264Y007538D02*
X006021Y007538D01*
X005726Y007636D02*
X002297Y007636D01*
X002022Y006257D02*
X002009Y006257D01*
X002053Y006159D02*
X002120Y006159D01*
X002165Y006060D02*
X002248Y006060D01*
X002237Y005962D02*
X002936Y005962D01*
X002838Y005863D02*
X002278Y005863D01*
X002297Y005765D02*
X002739Y005765D01*
X002641Y005666D02*
X002297Y005666D01*
X002277Y005568D02*
X002542Y005568D01*
X002444Y005469D02*
X002236Y005469D01*
X002161Y005371D02*
X002397Y005371D01*
X002377Y005272D02*
X002045Y005272D01*
X002017Y005174D02*
X002358Y005174D01*
X002358Y005075D02*
X002150Y005075D01*
X002231Y004977D02*
X002382Y004977D01*
X002430Y004878D02*
X002272Y004878D01*
X002297Y004780D02*
X002532Y004780D01*
X003589Y005568D02*
X003863Y005568D01*
X003947Y005174D02*
X004397Y005174D01*
X004298Y005075D02*
X004045Y005075D01*
X004101Y004977D02*
X004243Y004977D01*
X004202Y004878D02*
X004202Y004854D01*
X004142Y004854D01*
X004142Y004878D01*
X005142Y004189D02*
X005202Y004189D01*
X005235Y004090D02*
X005108Y004090D01*
X005064Y003992D02*
X005280Y003992D01*
X005378Y003893D02*
X004965Y003893D01*
X005965Y003893D02*
X006378Y003893D01*
X006280Y003992D02*
X006064Y003992D01*
X006108Y004090D02*
X006235Y004090D01*
X006202Y004189D02*
X006142Y004189D01*
X009123Y001923D02*
X012062Y001923D01*
X012062Y001825D02*
X009142Y001825D01*
X009142Y001726D02*
X012062Y001726D01*
X012062Y001628D02*
X009142Y001628D01*
X009142Y001529D02*
X012096Y001529D01*
X012163Y001431D02*
X009142Y001431D01*
X009142Y001332D02*
X012262Y001332D01*
X012360Y001234D02*
X009142Y001234D01*
X009127Y001135D02*
X012459Y001135D01*
X012557Y001037D02*
X009086Y001037D01*
X009010Y000938D02*
X012657Y000938D01*
X014175Y000938D02*
X015686Y000938D01*
X015686Y000840D02*
X008875Y000840D01*
X014274Y001037D02*
X015686Y001037D01*
X015686Y001135D02*
X014373Y001135D01*
X014471Y001234D02*
X015686Y001234D01*
X015686Y001332D02*
X014570Y001332D01*
X014668Y001431D02*
X015686Y001431D01*
X015686Y001529D02*
X014767Y001529D01*
X014865Y001628D02*
X015686Y001628D01*
X015686Y001726D02*
X015281Y001726D01*
X015462Y001825D02*
X015686Y001825D01*
X015686Y001923D02*
X015560Y001923D01*
X015604Y002022D02*
X015686Y002022D01*
X015686Y002120D02*
X015643Y002120D01*
X015643Y002219D02*
X015686Y002219D01*
X015686Y002317D02*
X015643Y002317D01*
X015603Y002416D02*
X015686Y002416D01*
X015686Y002514D02*
X015557Y002514D01*
X015459Y002613D02*
X015686Y002613D01*
X015686Y002711D02*
X015273Y002711D01*
X015447Y002810D02*
X015686Y002810D01*
X015686Y002908D02*
X015545Y002908D01*
X015598Y003007D02*
X015686Y003007D01*
X015686Y003105D02*
X015639Y003105D01*
X015643Y003204D02*
X015686Y003204D01*
X015686Y003302D02*
X015643Y003302D01*
X015609Y003401D02*
X015686Y003401D01*
X015686Y003499D02*
X015568Y003499D01*
X015474Y003598D02*
X015686Y003598D01*
X015686Y003696D02*
X015309Y003696D01*
X015432Y003795D02*
X015686Y003795D01*
X015686Y003893D02*
X015530Y003893D01*
X015592Y003992D02*
X015686Y003992D01*
X015686Y004090D02*
X015633Y004090D01*
X015643Y004189D02*
X015686Y004189D01*
X015686Y004287D02*
X015643Y004287D01*
X015615Y004386D02*
X015686Y004386D01*
X015686Y004484D02*
X015575Y004484D01*
X015489Y004583D02*
X015686Y004583D01*
X015686Y004681D02*
X015345Y004681D01*
X015410Y004780D02*
X015686Y004780D01*
X015686Y004878D02*
X015515Y004878D01*
X015586Y004977D02*
X015686Y004977D01*
X015686Y005075D02*
X015626Y005075D01*
X015643Y005174D02*
X015686Y005174D01*
X015686Y005272D02*
X015643Y005272D01*
X015622Y005371D02*
X015686Y005371D01*
X015686Y005469D02*
X015581Y005469D01*
X015504Y005568D02*
X015686Y005568D01*
X015686Y005666D02*
X015382Y005666D01*
X015374Y005765D02*
X015686Y005765D01*
X015686Y005863D02*
X015500Y005863D01*
X015579Y005962D02*
X015686Y005962D01*
X015686Y006060D02*
X015620Y006060D01*
X015643Y006159D02*
X015686Y006159D01*
X015686Y006257D02*
X015643Y006257D01*
X015628Y006356D02*
X015686Y006356D01*
X015686Y006454D02*
X015587Y006454D01*
X015519Y006553D02*
X015686Y006553D01*
X015686Y006651D02*
X015418Y006651D01*
X015337Y006750D02*
X015686Y006750D01*
X015686Y006848D02*
X015485Y006848D01*
X015573Y006947D02*
X015686Y006947D01*
X015686Y007045D02*
X015614Y007045D01*
X015643Y007144D02*
X015686Y007144D01*
X015686Y007242D02*
X015643Y007242D01*
X015634Y007341D02*
X015686Y007341D01*
X015686Y007439D02*
X015593Y007439D01*
X015534Y007538D02*
X015686Y007538D01*
X015686Y007636D02*
X015435Y007636D01*
X015686Y007735D02*
X014076Y007735D01*
X013978Y007833D02*
X015686Y007833D01*
X014231Y007636D02*
X014175Y007636D01*
X011767Y008523D02*
X011758Y008523D01*
X001057Y002219D02*
X000752Y002219D01*
X000752Y002317D02*
X000865Y002317D01*
X000767Y002416D02*
X000752Y002416D01*
X000752Y000741D02*
X015686Y000741D01*
X015686Y000643D02*
X000752Y000643D01*
X000752Y000544D02*
X015686Y000544D01*
X015686Y000446D02*
X000752Y000446D01*
D24*
X002747Y005111D02*
X002747Y005248D01*
X003534Y006036D01*
X002668Y006410D02*
X002392Y006410D01*
X002085Y006717D01*
X001487Y006717D01*
X010739Y004473D02*
X010739Y003811D01*
X012432Y002119D01*
X012432Y001685D01*
X012865Y001252D01*
X013967Y001252D01*
X014833Y002119D01*
X014833Y002217D01*
X010790Y004524D02*
X010739Y004473D01*
M02*
