G75*
%MOIN*%
%OFA0B0*%
%FSLAX24Y24*%
%IPPOS*%
%LPD*%
%AMOC8*
5,1,8,0,0,1.08239X$1,22.5*
%
%ADD10C,0.0000*%
%ADD11C,0.0060*%
D10*
X000542Y000150D02*
X000542Y009284D01*
X015896Y009284D01*
X015896Y000150D01*
X000542Y000150D01*
D11*
X003184Y002660D02*
X003611Y002660D01*
X003397Y002660D02*
X003397Y003301D01*
X003611Y003087D01*
X003828Y002874D02*
X003828Y003301D01*
X004255Y003301D02*
X004255Y002874D01*
X004042Y002660D01*
X003828Y002874D01*
X005116Y002767D02*
X005116Y002660D01*
X005223Y002660D01*
X005223Y002767D01*
X005116Y002767D01*
X005116Y002660D02*
X005330Y002447D01*
X005547Y002767D02*
X005654Y002660D01*
X005867Y002660D01*
X005974Y002767D01*
X006192Y002767D02*
X006192Y003301D01*
X005974Y003194D02*
X005974Y003087D01*
X005867Y002981D01*
X005654Y002981D01*
X005547Y002874D01*
X005547Y002767D01*
X005547Y003194D02*
X005654Y003301D01*
X005867Y003301D01*
X005974Y003194D01*
X006192Y002767D02*
X006298Y002660D01*
X006512Y002660D01*
X006619Y002767D01*
X006619Y003301D01*
X006836Y003301D02*
X007263Y003301D01*
X007050Y003301D02*
X007050Y002660D01*
X007481Y002660D02*
X007481Y003087D01*
X007694Y003301D01*
X007908Y003087D01*
X007908Y002660D01*
X007908Y002981D02*
X007481Y002981D01*
X008125Y003301D02*
X008552Y003301D01*
X008339Y003301D02*
X008339Y002660D01*
X008770Y002767D02*
X008770Y002874D01*
X008877Y002981D01*
X009090Y002981D01*
X009197Y003087D01*
X009197Y003194D01*
X009090Y003301D01*
X008877Y003301D01*
X008770Y003194D01*
X008770Y002767D02*
X008877Y002660D01*
X009090Y002660D01*
X009197Y002767D01*
X009414Y002554D02*
X009841Y002554D01*
X010059Y002767D02*
X010166Y002660D01*
X010379Y002660D01*
X010486Y002767D01*
X010486Y003194D01*
X010379Y003301D01*
X010166Y003301D01*
X010059Y003194D01*
X010059Y002767D01*
X010703Y002981D02*
X010703Y003194D01*
X010810Y003301D01*
X011130Y003301D01*
X011130Y002660D01*
X011347Y002660D02*
X011560Y002660D01*
X011453Y002660D02*
X011453Y003301D01*
X011347Y003301D02*
X011560Y003301D01*
X011130Y002874D02*
X010810Y002874D01*
X010703Y002981D01*
X011778Y002660D02*
X012205Y002660D01*
X012205Y003301D01*
X012669Y003800D02*
X012562Y003907D01*
X012562Y004120D01*
X012669Y004227D01*
X012775Y004227D01*
X012882Y004120D01*
X012882Y003907D01*
X012989Y003800D01*
X013096Y003800D01*
X013202Y003907D01*
X013202Y004120D01*
X013096Y004227D01*
X012882Y004444D02*
X012669Y004444D01*
X012562Y004551D01*
X012562Y004871D01*
X012562Y005089D02*
X013202Y005089D01*
X012989Y005196D02*
X012989Y005409D01*
X012882Y005516D01*
X012562Y005516D01*
X012562Y005733D02*
X012562Y005947D01*
X012562Y005840D02*
X013202Y005840D01*
X013202Y005733D01*
X013612Y005733D02*
X014039Y005733D01*
X014039Y005626D01*
X014252Y005733D02*
X014359Y005733D01*
X014039Y006056D02*
X014039Y006376D01*
X013932Y006483D01*
X013612Y006483D01*
X012989Y006483D02*
X012989Y006270D01*
X012882Y006163D01*
X012669Y006163D01*
X012562Y006270D01*
X012562Y006483D01*
X012775Y006590D02*
X012775Y006163D01*
X012989Y006483D02*
X012882Y006590D01*
X012775Y006590D01*
X012669Y006808D02*
X012562Y006914D01*
X012562Y007235D01*
X012455Y007235D02*
X012989Y007235D01*
X012989Y006914D01*
X012882Y006808D01*
X012669Y006808D01*
X012348Y007021D02*
X012348Y007128D01*
X012455Y007235D01*
X012669Y007452D02*
X012882Y007452D01*
X012989Y007559D01*
X012989Y007772D01*
X012882Y007879D01*
X012775Y007879D01*
X012775Y007452D01*
X012669Y007452D02*
X012562Y007559D01*
X012562Y007772D01*
X012562Y008097D02*
X012562Y008310D01*
X012562Y008204D02*
X013202Y008204D01*
X013202Y008097D01*
X014009Y008211D02*
X014116Y008318D01*
X014116Y008745D01*
X014223Y008639D02*
X014009Y008639D01*
X014440Y008532D02*
X014547Y008639D01*
X014760Y008639D01*
X014867Y008532D01*
X014867Y008318D01*
X014760Y008211D01*
X014547Y008211D01*
X014440Y008318D01*
X014440Y008532D01*
X015085Y008532D02*
X015085Y008318D01*
X015192Y008211D01*
X015512Y008211D01*
X015512Y008852D01*
X015512Y008639D02*
X015192Y008639D01*
X015085Y008532D01*
X014039Y006056D02*
X013612Y006056D01*
X013612Y005839D02*
X013612Y005626D01*
X013612Y005408D02*
X013932Y005408D01*
X014039Y005302D01*
X013932Y005195D01*
X013612Y005195D01*
X013612Y004981D02*
X014039Y004981D01*
X014039Y005088D01*
X013932Y005195D01*
X014039Y004765D02*
X014039Y004658D01*
X013825Y004444D01*
X013612Y004444D02*
X014039Y004444D01*
X014039Y004227D02*
X013612Y004227D01*
X013932Y004227D02*
X013932Y003800D01*
X014039Y003800D02*
X014252Y004013D01*
X014039Y004227D01*
X014039Y003800D02*
X013612Y003800D01*
X012882Y004444D02*
X012989Y004551D01*
X012989Y004871D01*
X012882Y005089D02*
X012989Y005196D01*
X003174Y005850D02*
X002841Y005850D01*
X002841Y006161D01*
X002841Y006669D02*
X002841Y006970D01*
X003174Y006970D01*
M02*
