%
M48
M72
T01C0.0236
T02C0.0320
T03C0.0400
T04C0.0520
%
T01
X2432Y2591
X4203Y3654
X5148Y3654
X6172Y3654
X7195Y3654
X8180Y3654
X9833Y4835
X10699Y5544
X10424Y6134
X10739Y6804
X10187Y7237
X10621Y7709
X10896Y8339
X8258Y8418
X7077Y8260
X5896Y8063
X3967Y8221
X2392Y8024
X6487Y6804
X7943Y6134
X8652Y6134
X9282Y6213
X6684Y5544
X2747Y5111
X2707Y4244
X9400Y2237
X12510Y3772
X14321Y8142
T02
X11790Y4524
X10790Y4524
X8672Y4524
X7672Y4524
X6672Y4524
X5672Y4524
X4672Y4524
X3672Y4524
X3672Y1524
X4672Y1524
X5672Y1524
X6672Y1524
X7672Y1524
X8672Y1524
X10790Y1524
X11790Y1524
T03
X1487Y1717
X1487Y2717
X1487Y3717
X1487Y4717
X1487Y5717
X1487Y6717
X1487Y7717
X14833Y7217
X14833Y6217
X14833Y5217
X14833Y4217
X14833Y3217
X14833Y2217
T04
X13337Y2158
X13337Y3181
M30
