G75*
%MOIN*%
%OFA0B0*%
%FSLAX24Y24*%
%IPPOS*%
%LPD*%
%AMOC8*
5,1,8,0,0,1.08239X$1,22.5*
%
%ADD10C,0.0000*%
%ADD11R,0.0236X0.0472*%
%ADD12R,0.0394X0.0433*%
%ADD13R,0.0472X0.0472*%
%ADD14R,0.0433X0.0394*%
%ADD15R,0.0787X0.0591*%
%ADD16R,0.0787X0.1496*%
D10*
X000542Y000150D02*
X000542Y009284D01*
X015896Y009284D01*
X015896Y000150D01*
X000542Y000150D01*
D11*
X007152Y005544D03*
X007652Y005544D03*
X008152Y005544D03*
X008652Y005544D03*
X009152Y005544D03*
X009652Y005544D03*
X010152Y005544D03*
X010152Y007748D03*
X009652Y007748D03*
X009152Y007748D03*
X008652Y007748D03*
X008152Y007748D03*
X007652Y007748D03*
X007152Y007748D03*
D12*
X011467Y007473D03*
X012136Y007473D03*
X012136Y008142D03*
X011467Y008142D03*
X011467Y006804D03*
X012136Y006804D03*
X012136Y006134D03*
X011467Y006134D03*
X011467Y005465D03*
X012136Y005465D03*
D13*
X012727Y005465D03*
X013554Y005465D03*
X013554Y006134D03*
X012727Y006134D03*
X012727Y006804D03*
X013554Y006804D03*
X013554Y007473D03*
X012727Y007473D03*
X012727Y008142D03*
X013554Y008142D03*
D14*
X008691Y003162D03*
X007707Y003162D03*
X007707Y002493D03*
X008691Y002493D03*
X006684Y002493D03*
X005660Y002493D03*
X004676Y002493D03*
X003691Y002493D03*
X003691Y003162D03*
X004676Y003162D03*
X005660Y003162D03*
X006684Y003162D03*
D15*
X003121Y006056D03*
X003121Y006961D03*
X003121Y007867D03*
D16*
X005601Y006961D03*
M02*
